<mxfile host="app.diagrams.net" agent="Mozilla/5.0 (Windows NT 10.0; Win64; x64) AppleWebKit/537.36 (KHTML, like Gecko) Chrome/129.0.0.0 Safari/537.36 Edg/129.0.0.0" version="24.7.17">
  <diagram name="PÃ¡gina-1" id="Addlk2_wDhNhdAZ4jDH6">
    <mxGraphModel dx="1769" dy="490" grid="1" gridSize="10" guides="1" tooltips="1" connect="1" arrows="1" fold="1" page="1" pageScale="1" pageWidth="827" pageHeight="1169" math="0" shadow="0">
      <root>
        <mxCell id="0" />
        <mxCell id="1" parent="0" />
        <mxCell id="I0id7wqPe4yJiHTyBor8-3" value="" style="group" vertex="1" connectable="0" parent="1">
          <mxGeometry x="170" y="180" width="670" height="390" as="geometry" />
        </mxCell>
        <mxCell id="I0id7wqPe4yJiHTyBor8-1" value="" style="rounded=0;whiteSpace=wrap;html=1;" vertex="1" parent="I0id7wqPe4yJiHTyBor8-3">
          <mxGeometry width="320" height="157.85714285714283" as="geometry" />
        </mxCell>
        <mxCell id="I0id7wqPe4yJiHTyBor8-2" value="Node" style="text;html=1;align=center;verticalAlign=middle;resizable=0;points=[];autosize=1;strokeColor=none;fillColor=none;" vertex="1" parent="I0id7wqPe4yJiHTyBor8-3">
          <mxGeometry x="134.19354838709677" width="50" height="30" as="geometry" />
        </mxCell>
        <mxCell id="I0id7wqPe4yJiHTyBor8-13" value="" style="group;fillColor=#d5e8d4;strokeColor=#82b366;" vertex="1" connectable="0" parent="I0id7wqPe4yJiHTyBor8-3">
          <mxGeometry x="10.32" y="20" width="109.68" height="125.71" as="geometry" />
        </mxCell>
        <mxCell id="I0id7wqPe4yJiHTyBor8-11" value="POD" style="ellipse;whiteSpace=wrap;html=1;aspect=fixed;" vertex="1" parent="I0id7wqPe4yJiHTyBor8-13">
          <mxGeometry width="106.86542694497155" height="106.86542694497155" as="geometry" />
        </mxCell>
        <mxCell id="I0id7wqPe4yJiHTyBor8-12" value="imagem&lt;div&gt;2&lt;/div&gt;" style="rhombus;whiteSpace=wrap;html=1;" vertex="1" parent="I0id7wqPe4yJiHTyBor8-13">
          <mxGeometry x="27.42" y="68.5690909090909" width="54.84" height="57.14090909090909" as="geometry" />
        </mxCell>
        <mxCell id="I0id7wqPe4yJiHTyBor8-14" value="" style="group;fillColor=#fff2cc;strokeColor=#d6b656;" vertex="1" connectable="0" parent="I0id7wqPe4yJiHTyBor8-3">
          <mxGeometry x="185.81" y="50" width="104.19" height="95.71" as="geometry" />
        </mxCell>
        <mxCell id="I0id7wqPe4yJiHTyBor8-15" value="POD" style="ellipse;whiteSpace=wrap;html=1;aspect=fixed;fillColor=#ffe6cc;strokeColor=#d79b00;" vertex="1" parent="I0id7wqPe4yJiHTyBor8-14">
          <mxGeometry width="81.3625806451613" height="81.3625806451613" as="geometry" />
        </mxCell>
        <mxCell id="I0id7wqPe4yJiHTyBor8-16" value="imagem" style="rhombus;whiteSpace=wrap;html=1;" vertex="1" parent="I0id7wqPe4yJiHTyBor8-14">
          <mxGeometry x="26.0475" y="52.20545454545454" width="52.095" height="43.50454545454545" as="geometry" />
        </mxCell>
        <mxCell id="I0id7wqPe4yJiHTyBor8-8" value="" style="group;fillColor=#e1d5e7;strokeColor=#9673a6;" vertex="1" connectable="0" parent="I0id7wqPe4yJiHTyBor8-3">
          <mxGeometry x="190" y="170" width="440" height="220" as="geometry" />
        </mxCell>
        <mxCell id="I0id7wqPe4yJiHTyBor8-9" value="" style="rounded=0;whiteSpace=wrap;html=1;" vertex="1" parent="I0id7wqPe4yJiHTyBor8-8">
          <mxGeometry width="440" height="220" as="geometry" />
        </mxCell>
        <mxCell id="I0id7wqPe4yJiHTyBor8-10" value="Node" style="text;html=1;align=center;verticalAlign=middle;resizable=0;points=[];autosize=1;strokeColor=none;fillColor=none;" vertex="1" parent="I0id7wqPe4yJiHTyBor8-8">
          <mxGeometry x="130" width="50" height="30" as="geometry" />
        </mxCell>
        <mxCell id="I0id7wqPe4yJiHTyBor8-17" value="" style="group;fillColor=#fff2cc;strokeColor=#d6b656;" vertex="1" connectable="0" parent="I0id7wqPe4yJiHTyBor8-8">
          <mxGeometry x="30" y="40" width="90" height="100" as="geometry" />
        </mxCell>
        <mxCell id="I0id7wqPe4yJiHTyBor8-18" value="POD" style="ellipse;whiteSpace=wrap;html=1;aspect=fixed;fillColor=#ffe6cc;strokeColor=#d79b00;" vertex="1" parent="I0id7wqPe4yJiHTyBor8-17">
          <mxGeometry width="90" height="90" as="geometry" />
        </mxCell>
        <mxCell id="I0id7wqPe4yJiHTyBor8-19" value="imagem" style="rhombus;whiteSpace=wrap;html=1;" vertex="1" parent="I0id7wqPe4yJiHTyBor8-17">
          <mxGeometry x="22.5" y="54.54545454545455" width="45" height="45.45454545454545" as="geometry" />
        </mxCell>
        <mxCell id="I0id7wqPe4yJiHTyBor8-37" value="" style="shape=cylinder3;whiteSpace=wrap;html=1;boundedLbl=1;backgroundOutline=1;size=15;" vertex="1" parent="I0id7wqPe4yJiHTyBor8-8">
          <mxGeometry x="340" y="50" width="60" height="80" as="geometry" />
        </mxCell>
        <mxCell id="I0id7wqPe4yJiHTyBor8-38" value="" style="group;fillColor=#e1d5e7;strokeColor=#9673a6;" vertex="1" connectable="0" parent="I0id7wqPe4yJiHTyBor8-8">
          <mxGeometry x="210" y="40" width="90" height="100" as="geometry" />
        </mxCell>
        <mxCell id="I0id7wqPe4yJiHTyBor8-39" value="POD" style="ellipse;whiteSpace=wrap;html=1;aspect=fixed;fillColor=#ffe6cc;strokeColor=#d79b00;" vertex="1" parent="I0id7wqPe4yJiHTyBor8-38">
          <mxGeometry width="90" height="90" as="geometry" />
        </mxCell>
        <mxCell id="I0id7wqPe4yJiHTyBor8-40" value="bd" style="rhombus;whiteSpace=wrap;html=1;" vertex="1" parent="I0id7wqPe4yJiHTyBor8-38">
          <mxGeometry x="22.5" y="54.54545454545455" width="45" height="45.45454545454545" as="geometry" />
        </mxCell>
        <mxCell id="I0id7wqPe4yJiHTyBor8-41" style="edgeStyle=orthogonalEdgeStyle;rounded=0;orthogonalLoop=1;jettySize=auto;html=1;" edge="1" parent="I0id7wqPe4yJiHTyBor8-8" source="I0id7wqPe4yJiHTyBor8-39" target="I0id7wqPe4yJiHTyBor8-37">
          <mxGeometry relative="1" as="geometry" />
        </mxCell>
        <mxCell id="I0id7wqPe4yJiHTyBor8-42" style="edgeStyle=orthogonalEdgeStyle;rounded=0;orthogonalLoop=1;jettySize=auto;html=1;" edge="1" parent="I0id7wqPe4yJiHTyBor8-8" source="I0id7wqPe4yJiHTyBor8-18" target="I0id7wqPe4yJiHTyBor8-39">
          <mxGeometry relative="1" as="geometry" />
        </mxCell>
        <mxCell id="I0id7wqPe4yJiHTyBor8-29" style="edgeStyle=orthogonalEdgeStyle;rounded=0;orthogonalLoop=1;jettySize=auto;html=1;entryX=0;entryY=0.5;entryDx=0;entryDy=0;" edge="1" parent="I0id7wqPe4yJiHTyBor8-3" source="I0id7wqPe4yJiHTyBor8-27" target="I0id7wqPe4yJiHTyBor8-28">
          <mxGeometry relative="1" as="geometry" />
        </mxCell>
        <mxCell id="I0id7wqPe4yJiHTyBor8-27" value="Service" style="rhombus;whiteSpace=wrap;html=1;fillColor=#fff2cc;strokeColor=#d6b656;" vertex="1" parent="I0id7wqPe4yJiHTyBor8-3">
          <mxGeometry x="-20" y="180" width="80" height="80" as="geometry" />
        </mxCell>
        <mxCell id="I0id7wqPe4yJiHTyBor8-30" style="edgeStyle=orthogonalEdgeStyle;rounded=0;orthogonalLoop=1;jettySize=auto;html=1;" edge="1" parent="I0id7wqPe4yJiHTyBor8-3" source="I0id7wqPe4yJiHTyBor8-28" target="I0id7wqPe4yJiHTyBor8-16">
          <mxGeometry relative="1" as="geometry" />
        </mxCell>
        <mxCell id="I0id7wqPe4yJiHTyBor8-31" style="edgeStyle=orthogonalEdgeStyle;rounded=0;orthogonalLoop=1;jettySize=auto;html=1;" edge="1" parent="I0id7wqPe4yJiHTyBor8-3" source="I0id7wqPe4yJiHTyBor8-28" target="I0id7wqPe4yJiHTyBor8-18">
          <mxGeometry relative="1" as="geometry" />
        </mxCell>
        <mxCell id="I0id7wqPe4yJiHTyBor8-28" value="LoadBalance" style="rhombus;whiteSpace=wrap;html=1;" vertex="1" parent="I0id7wqPe4yJiHTyBor8-3">
          <mxGeometry x="90" y="180" width="80" height="80" as="geometry" />
        </mxCell>
        <mxCell id="I0id7wqPe4yJiHTyBor8-5" value="" style="group;fillColor=#f8cecc;strokeColor=#b85450;" vertex="1" connectable="0" parent="I0id7wqPe4yJiHTyBor8-3">
          <mxGeometry x="360" y="13.930000000000007" width="310" height="131.77999999999997" as="geometry" />
        </mxCell>
        <mxCell id="I0id7wqPe4yJiHTyBor8-6" value="" style="rounded=0;whiteSpace=wrap;html=1;fillColor=#f8cecc;strokeColor=#b85450;" vertex="1" parent="I0id7wqPe4yJiHTyBor8-5">
          <mxGeometry width="310" height="130" as="geometry" />
        </mxCell>
        <mxCell id="I0id7wqPe4yJiHTyBor8-7" value="Master Node" style="text;html=1;align=center;verticalAlign=middle;resizable=0;points=[];autosize=1;strokeColor=none;fillColor=none;" vertex="1" parent="I0id7wqPe4yJiHTyBor8-5">
          <mxGeometry x="110" width="90" height="30" as="geometry" />
        </mxCell>
        <mxCell id="I0id7wqPe4yJiHTyBor8-34" value="" style="group;fillColor=#d5e8d4;strokeColor=#82b366;" vertex="1" connectable="0" parent="I0id7wqPe4yJiHTyBor8-5">
          <mxGeometry x="10" y="6.07" width="90" height="103.93" as="geometry" />
        </mxCell>
        <mxCell id="I0id7wqPe4yJiHTyBor8-35" value="POD" style="ellipse;whiteSpace=wrap;html=1;aspect=fixed;fillColor=#dae8fc;strokeColor=#6c8ebf;" vertex="1" parent="I0id7wqPe4yJiHTyBor8-34">
          <mxGeometry width="87.69044880604885" height="87.69044880604885" as="geometry" />
        </mxCell>
        <mxCell id="I0id7wqPe4yJiHTyBor8-36" value="imagem&lt;div&gt;3&lt;/div&gt;" style="rhombus;whiteSpace=wrap;html=1;" vertex="1" parent="I0id7wqPe4yJiHTyBor8-34">
          <mxGeometry x="22.5" y="56.68909090909091" width="45" height="47.24090909090909" as="geometry" />
        </mxCell>
        <mxCell id="I0id7wqPe4yJiHTyBor8-32" style="edgeStyle=orthogonalEdgeStyle;rounded=0;orthogonalLoop=1;jettySize=auto;html=1;" edge="1" parent="I0id7wqPe4yJiHTyBor8-3" source="I0id7wqPe4yJiHTyBor8-6" target="I0id7wqPe4yJiHTyBor8-1">
          <mxGeometry relative="1" as="geometry" />
        </mxCell>
        <mxCell id="I0id7wqPe4yJiHTyBor8-33" style="edgeStyle=orthogonalEdgeStyle;rounded=0;orthogonalLoop=1;jettySize=auto;html=1;" edge="1" parent="I0id7wqPe4yJiHTyBor8-3" source="I0id7wqPe4yJiHTyBor8-6" target="I0id7wqPe4yJiHTyBor8-9">
          <mxGeometry relative="1" as="geometry" />
        </mxCell>
        <mxCell id="I0id7wqPe4yJiHTyBor8-43" style="edgeStyle=orthogonalEdgeStyle;rounded=0;orthogonalLoop=1;jettySize=auto;html=1;" edge="1" parent="I0id7wqPe4yJiHTyBor8-3" source="I0id7wqPe4yJiHTyBor8-15" target="I0id7wqPe4yJiHTyBor8-39">
          <mxGeometry relative="1" as="geometry">
            <Array as="points">
              <mxPoint x="227" y="200" />
              <mxPoint x="445" y="200" />
            </Array>
          </mxGeometry>
        </mxCell>
        <mxCell id="I0id7wqPe4yJiHTyBor8-24" style="edgeStyle=orthogonalEdgeStyle;rounded=0;orthogonalLoop=1;jettySize=auto;html=1;" edge="1" parent="1" source="I0id7wqPe4yJiHTyBor8-23">
          <mxGeometry relative="1" as="geometry">
            <mxPoint x="150" y="400" as="targetPoint" />
          </mxGeometry>
        </mxCell>
        <mxCell id="I0id7wqPe4yJiHTyBor8-23" value="Actor" style="shape=umlActor;verticalLabelPosition=bottom;verticalAlign=top;html=1;outlineConnect=0;" vertex="1" parent="1">
          <mxGeometry x="-10" y="355" width="30" height="60" as="geometry" />
        </mxCell>
        <mxCell id="I0id7wqPe4yJiHTyBor8-26" value="Kubernets" style="swimlane;whiteSpace=wrap;html=1;" vertex="1" parent="1">
          <mxGeometry x="130" y="140" width="770" height="490" as="geometry" />
        </mxCell>
      </root>
    </mxGraphModel>
  </diagram>
</mxfile>
